<svg width="200" height="200" viewBox="0 0 200 200" fill="none" xmlns="http://www.w3.org/2000/svg">
<g clip-path="url(#clip0_139_4947)">
<rect width="200" height="200" rx="100" fill="#007FFE"/>
<path d="M77.6098 86.8632L90.0668 128.053L83.4272 150.007C81.9192 154.99 78.0558 158.894 73.1195 160.422C64.8958 162.967 56.1865 158.302 53.6785 149.999C49.3582 135.709 42.9505 114.523 39.0218 101.534C37.1008 95.1839 40.6492 88.4679 46.9445 86.5302C48.1005 86.1759 49.2712 86.0039 50.4202 86.0039C55.5268 86.0039 60.2495 89.3379 61.8188 94.5182L68.5565 116.79L77.6098 86.8632Z" fill="white"/>
<path d="M121.725 160.611C121.649 160.635 121.573 160.658 121.497 160.682C113.36 163.201 104.741 158.582 102.257 150.371L77.3804 68.1353C75.4671 61.8093 78.9907 54.9226 85.2111 52.831C91.4311 50.7396 98.0857 54.204 99.9991 60.5293L117.083 117.004L138.589 45.9143C140.529 39.5003 146.982 36.706 152.929 39.7053C159.224 41.6433 162.769 48.3616 160.848 54.7113C151.209 86.5743 141.57 118.437 131.931 150.3C130.438 155.234 126.614 159.098 121.725 160.611Z" fill="white"/>
<g filter="url(#filter0_f_139_4947)">
<path d="M-4.7019 150V657.811L22 724.133L-605 835L-583.243 150H-4.7019Z" fill="#0080FF"/>
</g>
</g>
<defs>
<filter id="filter0_f_139_4947" x="-767.1" y="-790.1" width="1734.2" height="1780.2" filterUnits="userSpaceOnUse" color-interpolation-filters="sRGB">
<feFlood flood-opacity="0" result="BackgroundImageFix"/>
<feBlend mode="normal" in="SourceGraphic" in2="BackgroundImageFix" result="shape"/>
<feGaussianBlur stdDeviation="77.55" result="effect1_foregroundBlur_139_4947"/>
</filter>
<clipPath id="clip0_139_4947">
<rect width="200" height="200" rx="100" fill="white"/>
</clipPath>
</defs>
</svg>
